<?xml version="1.0" standalone="no"?><!DOCTYPE svg PUBLIC "-//W3C//DTD SVG 1.1//EN" "http://www.w3.org/Graphics/SVG/1.1/DTD/svg11.dtd"><svg t="1536981818895" class="icon" style="" viewBox="0 0 1024 1024" version="1.1" xmlns="http://www.w3.org/2000/svg" p-id="764" xmlns:xlink="http://www.w3.org/1999/xlink" width="200" height="200"><defs><style type="text/css"></style></defs><path d="M888.32 823.04a1102.08 1102.08 0 0 0-197.973333-298.666667 21.333333 21.333333 0 0 0 0-26.453333 21.333333 21.333333 0 0 0-30.293334 0A213.333333 213.333333 0 1 1 725.333333 341.333333a21.333333 21.333333 0 0 0 42.666667 0 256 256 0 1 0-434.773333 183.04 1102.08 1102.08 0 0 0-197.546667 298.666667A81.493333 81.493333 0 0 0 209.066667 938.666667h605.866666a81.066667 81.066667 0 0 0 73.386667-115.626667z m-40.533333 54.613333a38.826667 38.826667 0 0 1-32.853334 18.346667H209.066667a38.826667 38.826667 0 0 1-32.853334-18.346667 37.973333 37.973333 0 0 1 0-36.266666 1047.04 1047.04 0 0 1 192-290.133334A256 256 0 0 0 512 597.333333a252.16 252.16 0 0 0 144.64-45.653333 1047.04 1047.04 0 0 1 192 290.133333 36.693333 36.693333 0 0 1-0.853333 35.84z" fill="#1296db" p-id="765"></path></svg>