<?xml version="1.0" standalone="no"?><!DOCTYPE svg PUBLIC "-//W3C//DTD SVG 1.1//EN" "http://www.w3.org/Graphics/SVG/1.1/DTD/svg11.dtd"><svg t="1536989233371" class="icon" style="" viewBox="0 0 1024 1024" version="1.1" xmlns="http://www.w3.org/2000/svg" p-id="996" xmlns:xlink="http://www.w3.org/1999/xlink" width="200" height="200"><defs><style type="text/css"></style></defs><path d="M719.786667 128A90.88 90.88 0 0 1 810.666667 218.88v586.24A90.88 90.88 0 0 1 719.786667 896H304.213333A90.88 90.88 0 0 1 213.333333 805.12V218.88A90.88 90.88 0 0 1 304.213333 128h415.573334m0-42.666667H304.213333A133.546667 133.546667 0 0 0 170.666667 218.88v586.24A133.546667 133.546667 0 0 0 304.213333 938.666667h415.573334A133.546667 133.546667 0 0 0 853.333333 805.12V218.88A133.546667 133.546667 0 0 0 719.786667 85.333333z" fill="#1296db" p-id="997"></path><path d="M661.333333 341.333333h-298.666666a21.333333 21.333333 0 0 1 0-42.666666h298.666666a21.333333 21.333333 0 0 1 0 42.666666zM629.333333 554.666667h-234.666666a21.333333 21.333333 0 0 1 0-42.666667h234.666666a21.333333 21.333333 0 0 1 0 42.666667zM661.333333 725.333333h-298.666666a21.333333 21.333333 0 0 1 0-42.666666h298.666666a21.333333 21.333333 0 0 1 0 42.666666z" fill="#1296db" p-id="998"></path></svg>